<?xml version="1.0" encoding="UTF-8" standalone="no"?>
<!DOCTYPE svg PUBLIC "-//W3C//DTD SVG 1.1//EN" "http://www.w3.org/Graphics/SVG/1.1/DTD/svg11.dtd">
<svg width="100%" height="100%" viewBox="0 0 234 253" version="1.1" xmlns="http://www.w3.org/2000/svg" xmlns:xlink="http://www.w3.org/1999/xlink" xml:space="preserve" xmlns:serif="http://www.serif.com/" style="fill-rule:evenodd;clip-rule:evenodd;stroke-linejoin:round;stroke-miterlimit:2;">
    <g transform="matrix(1,0,0,1,14.1766,182.784)">
        <g id="Layer-1" serif:id="Layer 1">
            <path d="M0,-112.639C10.314,-132.348 26.261,-149.406 46.116,-161.968C66.125,-174.628 88.743,-181.819 111.545,-182.784L111.545,-163.065C111.403,-163.058 111.262,-163.058 111.121,-163.05C71.405,-160.943 34.351,-137.013 16.719,-102.086C-0.266,-68.438 1.942,-26.722 22.34,4.198C41.95,33.919 77.164,51.688 112.053,49.467C145.512,47.337 176.477,26.882 190.94,-2.645C204.774,-30.886 202.526,-65.593 185.215,-91.066C168.706,-115.356 139.54,-129.578 110.91,-127.3C83.703,-125.135 58.836,-108.138 47.56,-83.998C36.884,-61.147 39.198,-33.449 53.449,-13.435C66.88,5.425 90.015,16.078 112.389,13.704C133.362,11.478 152.114,-2.097 160.162,-20.88C167.66,-38.38 165.231,-59.073 153.975,-73.6C143.565,-87.035 126.417,-94.058 110.287,-91.491C95.497,-89.138 82.901,-78.886 78.2,-65.374C73.994,-53.29 76.768,-39.249 85.104,-30.444C92.617,-22.506 104.218,-19.259 113.972,-22.365C122.657,-25.129 129.181,-32.906 129.837,-41.275C130.449,-49.116 125.769,-56.515 118.95,-58.511C115.175,-59.617 111.097,-58.91 108.041,-56.621C105.184,-54.48 103.545,-51.285 103.545,-47.856C103.545,-43.437 107.126,-39.856 111.545,-39.856C111.912,-39.856 112.274,-39.88 112.629,-39.928C111.834,-38.99 110.663,-38.102 109.118,-37.611C105.771,-36.545 100.438,-37.519 96.725,-41.443C93.232,-45.131 90.678,-52.547 93.312,-60.116C95.599,-66.689 102.512,-74.052 112.802,-75.69C123.086,-77.326 134.549,-72.548 141.326,-63.801C148.959,-53.949 150.619,-39.233 145.455,-27.182C139.74,-13.843 125.773,-3.807 110.7,-2.207C94.232,-0.46 76.462,-8.701 66.482,-22.716C55.687,-37.876 53.908,-59.782 62.056,-77.227C70.801,-95.948 90.944,-109.66 112.18,-111.351C134.822,-113.153 158.854,-101.386 171.981,-82.072C185.903,-61.588 187.748,-32.497 176.571,-9.683C164.774,14.401 138.437,31.755 111.036,33.5C82.224,35.334 51.946,20.017 35.695,-4.614C18.398,-30.831 16.558,-66.261 31.002,-94.875C46.096,-124.775 77.877,-145.263 111.969,-147.073C147.499,-148.957 183.163,-130.517 202.827,-100.093C212.689,-84.835 218.398,-66.613 219.337,-47.395C220.289,-27.887 216.229,-8.717 207.593,8.039C198.803,25.093 185.121,39.9 168.027,50.857C150.688,61.972 131.031,68.324 111.182,69.227C90.997,70.145 70.306,65.422 51.346,55.567C32.127,45.578 16.038,30.984 4.818,13.363C-6.581,-4.541 -13.108,-25.851 -14.058,-48.263C-15.016,-70.965 -10.158,-93.228 0,-112.639" style="fill:rgb(177,152,0);fill-rule:nonzero;"/>
        </g>
    </g>
</svg>
